I have gathered these from all over the web and put them together in one torrent to replace the upload that is out there that does not have a seeder. The files are XVID and M4V so they are not all the same as the torrent with no seeder. I have only checked a few and the ones I checked were all DVD rips, not from a tv source. Quality seems quite good. Get one and see for yourself. I will be able to seed this for quite a while (8-10 months), but just not at great speeds.So be patient and please share.                                          																As always, enjoy.																						TTLTTLTTLTTLTTLTTLTTLTTLTTLTTLTTLTTLTTLTTLTTLTTL																										The Odd Couple-S1E01.avi
Format                           : AVI
Format/Info                      : Audio Video Interleave
File size                        : 231 MiB
Duration                         : 25mn 42s
Overall bit rate                 : 1 256 Kbps
Writing application              : VirtualDubMod 1.5.10.2 (build 2540/release)
Writing library                  : VirtualDubMod build 2540/release

Video
ID                               : 0
Format                           : MPEG-4 Visual
Format profile                   : Advanced Simple@L5
Format settings, BVOP            : Yes
Format settings, QPel            : No
Format settings, GMC             : No warppoints
Format settings, Matrix          : Default (H.263)
Muxing mode                      : Packed bitstream
Codec ID                         : XVID
Codec ID/Hint                    : XviD
Duration                         : 25mn 42s
Bit rate                         : 1 116 Kbps
Width                            : 640 pixels
Height                           : 464 pixels
Display aspect ratio             : 1.379
Frame rate                       : 29.970 fps
Resolution                       : 8 bits
Colorimetry                      : 4:2:0
Scan type                        : Progressive
Bits/(Pixel*Frame)               : 0.125
Stream size                      : 205 MiB (89%)
Writing library                  : XviD 1.2.1 (UTC 2008-12-04)

Audio                            : English
ID                               : 1
Format                           : MPEG Audio
Format version                   : Version 1
Format profile                   : Layer 3
Mode                             : Joint stereo
Format_Settings_ModeExtension    : MS Stereo
Codec ID                         : 55
Codec ID/Hint                    : MP3
Duration                         : 25mn 42s
Bit rate mode                    : Constant
Bit rate                         : 128 Kbps
Channel(s)                       : 2 channels
Sampling rate                    : 48.0 KHz
Stream size                      : 23.5 MiB (10%)
Alignment                        : Aligned on interleaves
Interleave, duration             : 33 ms (1.00 video frame)
Interleave, preload duration     : 504 ms

					
